<?xml version="1.0" encoding="iso-8859-1"?>
<!-- Generator: Adobe Illustrator 19.0.0, SVG Export Plug-In . SVG Version: 6.00 Build 0)  -->
<svg version="1.1" id="Capa_1" xmlns="http://www.w3.org/2000/svg" xmlns:xlink="http://www.w3.org/1999/xlink" x="0px" y="0px"
	 viewBox="0 0 512 512" style="enable-background:new 0 0 512 512;" xml:space="preserve">
<g>
	<g>
		<path d="M382.784,137.888c-0.8-1.984-1.984-3.744-3.488-5.216L251.328,4.704c-1.472-1.472-3.232-2.656-5.184-3.456
			c-1.92-0.8-4-1.248-6.144-1.248H32C14.336,0,0,14.336,0,32v448c0,17.664,14.336,32,32,32h144c8.832,0,16-7.168,16-16
			c0-8.832-7.168-16-16-16H32V32h192v96c0,17.664,14.336,32,32,32h112c2.08,0,4.16-0.416,6.112-1.216
			c3.904-1.632,7.04-4.736,8.672-8.672C384.416,146.208,384.416,141.792,382.784,137.888z M256,128V54.624L329.376,128H256z"/>
	</g>
</g>
<g>
	<g>
		<path d="M480,256h-44.768c17.024-18.816,16.864-47.776-1.28-65.952c-18.688-18.688-49.184-18.688-67.872,0
			c-5.152,5.152-9.92,14.432-14.08,24.992c-4.16-10.56-8.928-19.84-14.048-24.992c-18.688-18.688-49.184-18.688-67.872,0
			c-18.176,18.176-18.336,47.136-1.312,65.952H224c-17.664,0-32,14.336-32,32v32c0,17.664,14.336,32,32,32v144
			c0,8.832,7.168,16,16,16h224c8.832,0,16-7.168,16-16V352c17.664,0,32-14.336,32-32v-32C512,270.336,497.664,256,480,256z
			 M292.672,212.672C295.808,209.568,299.904,208,304,208s8.192,1.568,11.328,4.672c3.424,3.584,9.216,18.784,14.528,37.152
			c-18.4-5.28-33.568-11.072-37.184-14.496C286.432,229.056,286.432,218.944,292.672,212.672z M336,480h-80V352h80V480z M336,320
			H224v-32h112V320z M388.672,212.672C391.808,209.568,395.904,208,400,208s8.192,1.568,11.328,4.672
			c6.24,6.24,6.24,16.384,0,22.624c-3.584,3.424-18.784,9.216-37.152,14.528C379.456,231.456,385.248,216.288,388.672,212.672z
			 M448,480h-80V352h80V480z M480,336v-16H368v-32h112v32h0.032L480,336z"/>
	</g>
</g>
<g>
	<g>
		<path d="M176,96H80c-8.832,0-16,7.168-16,16c0,8.832,7.168,16,16,16h96c8.832,0,16-7.168,16-16C192,103.168,184.832,96,176,96z"/>
	</g>
</g>
<g>
	<g>
		<path d="M176,160H80c-8.832,0-16,7.168-16,16c0,8.832,7.168,16,16,16h96c8.832,0,16-7.168,16-16C192,167.168,184.832,160,176,160z
			"/>
	</g>
</g>
<g>
	<g>
		<path d="M144,320H80c-8.832,0-16,7.168-16,16c0,8.832,7.168,16,16,16h64c8.832,0,16-7.168,16-16C160,327.168,152.832,320,144,320z
			"/>
	</g>
</g>
<g>
	<g>
		<path d="M176,384H80c-8.832,0-16,7.168-16,16c0,8.832,7.168,16,16,16h96c8.832,0,16-7.168,16-16C192,391.168,184.832,384,176,384z
			"/>
	</g>
</g>
<g>
</g>
<g>
</g>
<g>
</g>
<g>
</g>
<g>
</g>
<g>
</g>
<g>
</g>
<g>
</g>
<g>
</g>
<g>
</g>
<g>
</g>
<g>
</g>
<g>
</g>
<g>
</g>
<g>
</g>
</svg>
