<?xml version="1.0" encoding="iso-8859-1"?>
<!-- Generator: Adobe Illustrator 21.0.0, SVG Export Plug-In . SVG Version: 6.00 Build 0)  -->
<svg version="1.1" id="Capa_1" xmlns="http://www.w3.org/2000/svg" xmlns:xlink="http://www.w3.org/1999/xlink" x="0px" y="0px"
	 viewBox="0 0 512.049 512.049" style="enable-background:new 0 0 512.049 512.049;" xml:space="preserve">
<g transform="translate(0 -1)">
	<g transform="translate(1 17)">
		<path style="fill:#6A1B9A;" d="M476.891,197.382v247.467c0,18.851-15.282,34.133-34.133,34.133H67.291
			c-18.851,0-34.133-15.282-34.133-34.133V197.382H476.891z"/>
		<path style="fill:#9D27B0;" d="M442.758,197.382v247.467c0,18.851-15.282,34.133-34.133,34.133H67.291
			c-18.851,0-34.133-15.282-34.133-34.133V197.382H442.758z"/>
		<path style="fill:#4527A0;" d="M24.624,120.582h460.8c9.426,0,17.067,7.641,17.067,17.067v51.2
			c0,9.426-7.641,17.067-17.067,17.067h-460.8c-9.426,0-17.067-7.641-17.067-17.067v-51.2
			C7.558,128.223,15.199,120.582,24.624,120.582z"/>
		<path style="fill:#673AB7;" d="M24.624,120.582h435.2c9.426,0,17.067,7.641,17.067,17.067v51.2
			c0,9.426-7.641,17.067-17.067,17.067h-435.2c-9.426,0-17.067-7.641-17.067-17.067v-51.2
			C7.558,128.223,15.199,120.582,24.624,120.582z"/>
		<rect x="212.358" y="205.915" style="fill:#FFB301;" width="85.333" height="273.067"/>
		<rect x="212.358" y="205.915" style="fill:#FEC108;" width="59.733" height="273.067"/>
		<rect x="195.291" y="120.582" style="fill:#FFB301;" width="119.467" height="85.333"/>
		<rect x="195.291" y="120.582" style="fill:#FEC108;" width="93.867" height="85.333"/>
		<path style="fill:#AD1457;" d="M340.358,311.558c-0.805,15.551-5.405,30.668-13.397,44.032
			c-2.805,5.222-6.182,10.116-10.069,14.592c-17.856,19.569-38.745,36.136-61.867,49.067c-4.181-2.475-8.448-5.12-12.8-7.936
			c18.242-11.288,34.767-25.139,49.067-41.131c3.887-4.476,7.264-9.37,10.069-14.592c7.993-13.364,12.592-28.481,13.397-44.032
			c1.128-13.249-3.797-26.298-13.397-35.499c-4.688-4.055-10.23-7.001-16.213-8.619c14.505-4.238,30.167-1.009,41.813,8.619
			C336.561,285.26,341.486,298.309,340.358,311.558z"/>
		<path style="fill:#E91E63;" d="M314.758,311.558c-0.805,15.551-5.405,30.668-13.397,44.032
			c-2.805,5.222-6.182,10.116-10.069,14.592c-14.3,15.991-30.824,29.843-49.067,41.131c-18.242-11.288-34.767-25.139-49.067-41.131
			c-3.887-4.476-7.264-9.37-10.069-14.592c-7.993-13.364-12.592-28.481-13.397-44.032c-1.128-13.249,3.797-26.298,13.397-35.499
			c4.688-4.055,10.23-7.001,16.213-8.619c14.938-4.229,31-0.812,42.923,9.131c5.17,4.328,9.508,9.562,12.8,15.445
			c6.287-11.943,17.161-20.815,30.123-24.576c5.984,1.617,11.526,4.563,16.213,8.619
			C310.961,285.26,315.886,298.309,314.758,311.558z"/>
	</g>
	<path d="M486.424,137.582H372.453c24.393-19.618,34.425-52.085,25.352-82.044c-9.073-29.959-35.434-51.404-66.612-54.192
		s-60.925,13.641-75.169,41.515c-14.236-27.893-43.99-44.34-75.182-41.557s-57.565,24.239-66.636,54.212s0.977,62.452,25.39,82.065
		H25.624c-14.138,0-25.6,11.462-25.6,25.6v51.2c0,14.139,11.462,25.6,25.6,25.6v230.4c0.028,23.552,19.114,42.638,42.667,42.667
		h375.467c23.552-0.028,42.638-19.114,42.667-42.667v-230.4c14.138,0,25.6-11.462,25.6-25.6v-51.2
		C512.024,149.043,500.563,137.582,486.424,137.582z M251.689,452.129c2.675,1.577,5.995,1.577,8.67,0
		c10.262-6.044,20.207-12.609,29.798-19.669v63.522h-68.267V432.46C231.483,439.518,241.429,446.083,251.689,452.129z
		 M256.024,434.832c-20.62-11.963-39.293-27.004-55.373-44.604c-3.495-4.096-6.545-8.553-9.097-13.295
		c-7.327-12.15-11.561-25.913-12.331-40.081c-0.939-10.705,2.918-21.275,10.53-28.86c6.546-5.479,14.846-8.418,23.381-8.277
		c2.136,0.002,4.268,0.179,6.374,0.529c12.531,2.219,23.298,10.181,29.09,21.513c1.64,2.504,4.431,4.012,7.424,4.012
		c2.993,0,5.784-1.509,7.424-4.012c5.792-11.331,16.559-19.293,29.09-21.513c10.584-2.466,21.705,0.426,29.748,7.734
		c8.043,7.309,11.982,18.102,10.538,28.874v0.085c-0.79,14.218-5.056,28.024-12.425,40.209c-2.533,4.682-5.554,9.084-9.011,13.133
		C295.308,407.861,276.638,422.884,256.024,434.832z M290.158,283.365h-0.427c-13.177,2.249-25.125,9.112-33.707,19.362
		c-8.588-10.234-20.535-17.081-33.707-19.319h-0.427v-43.426h68.267V283.365z M204.824,222.915v-68.267h102.4v68.267H204.824z
		 M324.291,18.115c32.99,0,59.733,26.744,59.733,59.733s-26.743,59.733-59.733,59.733h-59.733V77.849
		C264.595,44.874,291.317,18.153,324.291,18.115z M128.024,77.849c0-32.99,26.744-59.733,59.733-59.733s59.733,26.744,59.733,59.733
		v59.733h-59.733C154.783,137.544,128.062,110.823,128.024,77.849z M17.091,214.382v-51.2c0-4.713,3.821-8.533,8.533-8.533h162.133
		v68.267H25.624C20.911,222.915,17.091,219.095,17.091,214.382z M42.691,470.382v-230.4h162.133v43.29
		c-9.75,1.355-18.899,5.504-26.342,11.947c-11.56,10.797-17.57,26.274-16.324,42.044c0.814,16.885,5.754,33.313,14.387,47.846
		c3.081,5.723,6.759,11.103,10.974,16.051c5.31,6.278,11.095,12.138,17.306,17.527v77.295H68.291
		C54.152,495.982,42.691,484.52,42.691,470.382z M469.358,470.382c0,14.138-11.462,25.6-25.6,25.6H307.224v-77.286
		c6.188-5.378,11.953-11.224,17.246-17.485c4.189-4.896,7.847-10.222,10.914-15.889c8.697-14.575,13.678-31.065,14.507-48.017
		c1.277-15.778-4.718-31.276-16.282-42.086c-7.454-6.452-16.619-10.604-26.385-11.955v-43.281h162.133V470.382z M494.958,214.382
		c0,4.713-3.82,8.533-8.533,8.533H324.291v-68.267h162.133c4.713,0,8.533,3.821,8.533,8.533V214.382z"/>
</g>
<g>
</g>
<g>
</g>
<g>
</g>
<g>
</g>
<g>
</g>
<g>
</g>
<g>
</g>
<g>
</g>
<g>
</g>
<g>
</g>
<g>
</g>
<g>
</g>
<g>
</g>
<g>
</g>
<g>
</g>
</svg>
